<?xml version="1.0" encoding="UTF-8"?>
<!DOCTYPE svg PUBLIC "-//W3C//DTD SVG 1.1//EN" "http://www.w3.org/Graphics/SVG/1.1/DTD/svg11.dtd">
<svg version="1.1" xmlns="http://www.w3.org/2000/svg" xmlns:xlink="http://www.w3.org/1999/xlink" x="0" y="0" width="610" height="220" viewBox="0, 0, 610, 220">
  <g id="Layer_1">
    <path d="M588.6,57.5 C588.6,61.4 591.8,64.6 595.7,64.6 C596.9,64.6 598.1,64.3 599.2,63.7 C600.3,63.1 601.2,62.2 601.8,61.1 C602.4,60 602.8,58.8 602.8,57.6 C602.8,56.4 602.5,55.1 601.8,54.1 C601.2,53 600.3,52.1 599.2,51.5 C597,50.2 594.3,50.2 592.1,51.5 C591,52.1 590.1,53 589.5,54.1 C588.9,55 588.5,56.3 588.6,57.5 L588.6,57.5 z M587.4,57.5 C587.4,56.1 587.7,54.6 588.5,53.4 C590,50.9 592.7,49.3 595.6,49.3 C597,49.3 598.5,49.6 599.7,50.4 C601,51.1 602,52.2 602.7,53.4 C605,57.3 603.7,62.4 599.7,64.7 C595.8,67 590.7,65.7 588.4,61.7 C587.8,60.4 587.4,58.9 587.4,57.5 L587.4,57.5 z M599,55.5 C599,56.1 598.8,56.6 598.5,57 C598.2,57.5 597.7,57.8 597.2,58 L599.8,62.3 L598,62.3 L595.7,58.4 L594.2,58.4 L594.2,62.3 L592.6,62.3 L592.6,52.5 L595.5,52.5 C596.4,52.4 597.4,52.7 598.2,53.2 C598.7,53.9 599,54.7 599,55.5 L599,55.5 z" fill="#0C1C49"/>
    <path d="M594.2,57.2 L594.2,54 L595.4,54 C595.9,54 596.4,54.1 596.9,54.4 C597.2,54.7 597.4,55.1 597.4,55.6 C597.4,56 597.2,56.5 596.9,56.8 C596.5,57.1 596,57.3 595.5,57.3 L594.2,57.2 z" fill="#FFFFFF"/>
    <path d="M542.2,180.7 L542.2,114.9 C542.2,94.5 553,84.6 566,84.6 C580.5,84.6 590.7,95.3 590.7,110.4 C590.7,125.5 581,135.8 566.3,135.8 C560.1,135.8 552.5,132.7 547.6,129.3 L547.6,143.5 C554,147.1 561.2,148.9 568.6,148.8 C587.6,148.8 604.3,132.7 604.3,112.1 C604.3,90.2 590.1,71.7 566,71.7 C544.2,71.7 528.7,88.1 528.7,112.4 L528.7,180.6 L542.2,180.7 z M497.2,56.7 C497.2,61.2 500.9,64.9 505.4,64.9 C509.9,64.9 513.6,61.2 513.6,56.7 C513.6,52.2 509.9,48.5 505.4,48.5 L505.4,48.5 C501,48.4 497.4,51.8 497.2,56.2 C497.2,56.4 497.2,56.5 497.2,56.7 z M498.6,73.2 L512.2,73.2 L512.2,147.3 L498.6,147.3 L498.6,73.2 z M424,147.3 L462,147.3 C475.1,147.3 485,140.7 485,126.6 C485,100.1 438,105.4 438.2,92.6 C438.3,88 440.3,86.1 447,86.1 L481.3,86.1 L481.3,73.1 L449.4,73.1 C433.2,73.1 424.1,80 424.1,93.2 C424.1,118.8 470.9,113.6 470.9,127.2 C470.9,131.8 468.4,134.3 462.1,134.3 L424.1,134.3 L424.1,147.3 z M409.2,147.3 L409.2,106.9 C409.2,85.6 394.7,71.7 371.8,71.7 C348,71.7 333.5,88.4 333.5,109.5 C333.5,131.3 348.6,148.9 369.9,148.9 C379.3,148.9 384.6,145.8 390,141.8 L390,125.7 C385.4,131.6 379,135.9 371.3,135.9 C357.1,135.9 347.1,124.3 347.1,110.6 C347.1,96.6 356.5,84.7 371.5,84.7 C383.8,84.7 395.6,91.8 395.6,105.7 L395.6,147.4 L409.2,147.3 z M309.8,39.2 L309.8,105.6 C309.8,126 299,135.9 286,135.9 C271.5,135.9 261.3,125.2 261.3,110.1 C261.3,94.8 271,84.6 285.7,84.6 C291.9,84.6 299.5,87.7 304.4,91.1 L304.4,76.9 C298,73.3 290.7,71.5 283.4,71.7 C264.4,71.7 247.7,87.8 247.7,108.4 C247.7,130.3 261.9,148.9 286,148.9 C307.8,148.9 323.4,132.5 323.4,108.1 L323.4,39.3 L309.8,39.2 z M176.6,110.3 C176.6,95.2 186.8,84.7 200.8,84.7 C214.8,84.7 225,95.2 225,110.3 C225,125.4 214.8,135.9 200.8,135.9 C186.8,135.9 176.6,125.4 176.6,110.3 L176.6,110.3 z M162.4,110.3 C162.4,133.2 180.3,148.9 200.8,148.9 C221.3,148.9 239.2,133.2 239.2,110.3 C239.2,87.4 221.3,71.7 200.8,71.7 C180.3,71.7 162.4,87.4 162.4,110.3 L162.4,110.3 z" fill="#0C1C49"/>
    <path d="M156.2,135.3 C142.4,110 151.7,78.2 177,64.4 C184.1,60.5 191.9,58.4 200,58 C171.2,7.8 107.1,-9.4 57,19.4 C6.9,48.2 -10.4,112.3 18.4,162.4 C47.2,212.5 111.3,229.8 161.4,201 C177.5,191.8 190.8,178.4 200,162.4 C181.6,161.6 165.1,151.4 156.2,135.3 z M124.9,134.8 L139.6,134.8 C141.1,138.4 142.8,141.8 144.9,145 C146.1,146.8 147.3,148.6 148.7,150.3 L124.9,150.3 C102.7,150.3 84.7,132.3 84.7,110.1 C84.7,87.9 102.7,69.9 124.9,69.9 L148.7,69.9 C147.4,71.6 146.1,73.4 144.9,75.2 C142.8,78.4 141.1,81.9 139.6,85.4 L124.9,85.4 C111.3,85.4 100.3,96.4 100.3,110 C100.3,123.7 111.3,134.7 124.9,134.8 L124.9,134.8 z" fill="#0C1C49"/>
  </g>
</svg>
