<?xml version="1.0" encoding="UTF-8"?>
<!DOCTYPE svg PUBLIC "-//W3C//DTD SVG 1.1//EN" "http://www.w3.org/Graphics/SVG/1.1/DTD/svg11.dtd">
<svg version="1.1" xmlns="http://www.w3.org/2000/svg" xmlns:xlink="http://www.w3.org/1999/xlink" x="0" y="0" width="652" height="300" viewBox="0, 0, 652, 300">
  <g id="Layer_1">
    <path d="M61.8,162.6 C61.8,149.3 72.6,138.5 85.9,138.5 C99.2,138.5 110,149.3 110,162.6 C110,175.9 99.2,186.7 85.9,186.7 C72.6,186.7 61.8,175.9 61.8,162.6 M556.5,96.2 L556.5,144.8 L518.5,144.8 L556.5,96.2 z M352.9,104.2 C352.9,96.7 353.4,94.6 353.9,93.6 C354.5,92.3 356,90.7 359.8,90.7 C362.4,90.7 364.3,91.9 365.1,94 C365.5,95.1 366.1,97.3 366.1,104.2 L366.1,113 L353,113 L352.9,104.2 L352.9,104.2 z M416.5,32.4 L416.5,145 L394.4,145 C394.6,142.9 394.7,140.5 394.7,137.6 L394.7,134.8 L367.9,134.8 L367.9,142.5 C367.9,147.6 367.5,150.9 366.5,152.9 C365.7,154.5 363.9,156.4 359.9,156.4 C356.6,156.4 355,154.9 354.3,153.6 C353.8,152.6 353,150.6 353,144.4 L353,122 L394.7,122 L394.7,111.3 C394.7,102.4 393.6,95.5 391.3,90.6 C389.1,85.9 385.2,82.1 379.8,79.2 C374.2,76.3 367,74.8 358.3,74.8 C351.2,74.8 344.9,76 339.5,78.5 C334.2,80.9 330.4,84.3 328.1,88.7 C325.8,93.2 324.6,99.5 324.6,107.5 L324.6,135.2 C324.6,139 324.8,142.3 325.1,145.1 L313.1,145.1 C313.2,144 313.2,142.9 313.2,141.7 C313.2,135.2 311.9,130.3 309.2,127 C306.5,123.6 300.5,119.9 291.5,115.9 C284.3,112.7 279.7,110.3 277.3,108.6 C274.7,106.7 273.1,105 272.6,103.2 C272.1,101.6 271.8,99.4 271.8,96.2 C271.8,93.6 272.4,91.6 273.6,90.2 C274.9,88.7 276.7,87.9 279.1,87.9 C282.1,87.9 284.1,88.9 285,90.7 C285.5,91.7 286,93.6 286,99.8 L286,105 L310.8,105 L310.8,99.5 C310.8,94.9 310.5,91.5 310,89.4 C309.5,87.5 308.1,85.3 305.7,83 C303.3,80.6 299.7,78.6 295.1,77.1 C290.4,75.6 284.6,74.8 277.8,74.8 C271,74.8 265,75.7 259.9,77.6 C255,79.4 251.5,81.9 249.5,85.2 C247.5,88.5 246.4,93.8 246.4,101 C246.4,106 247.4,110.4 249.3,114 C251.2,117.5 256.7,121.6 265.8,126.2 C281,133.8 284,135.8 285,136.7 C286.6,138.2 287.3,141.4 287.3,146.6 C287.3,150.5 286.7,152.9 285.5,154.3 C284.2,155.7 282.2,156.5 279.3,156.5 C275.7,156.5 274.1,154.7 273.4,153.1 C272.9,152 272.1,149.6 272.1,142.4 L272.1,134.5 L247.2,134.5 L247.2,140.9 C247.2,142.4 247.3,143.7 247.4,145.1 L223.7,145.1 C215.3,97.6 173.6,61.6 123.2,61.6 C66.9,61.6 21.2,106.9 21.2,162.7 C21.2,218.5 66.9,263.8 123.2,263.8 C173.6,263.8 215.4,227.6 223.7,180 L556.5,180 L556.5,213.3 L601.3,213.3 L601.3,180 L621.2,180 L621.2,144.9 L601.3,144.9 L601.3,53.7 L557.4,53.7 L480.8,145 L480.8,145 L459.3,145 L459.3,32.4 L416.5,32.4 z" fill="#96CA4F"/>
    <path d="M223.3,263.5 L227.3,263 C227.7,266.2 229.2,267.7 231.7,267.7 C232.9,267.7 233.9,267.4 234.6,266.7 C235.3,266.1 235.7,265.3 235.7,264.3 C235.7,263.7 235.6,263.3 235.3,262.9 C235.1,262.5 234.7,262.2 234.2,261.9 C233.7,261.6 232.5,261.2 230.5,260.6 C228.8,260.1 227.5,259.5 226.7,258.9 C225.9,258.3 225.2,257.5 224.8,256.5 C224.3,255.5 224.1,254.4 224.1,253.3 C224.1,252 224.4,250.7 225,249.7 C225.6,248.6 226.5,247.8 227.5,247.3 C228.6,246.7 229.9,246.5 231.5,246.5 C233.9,246.5 235.7,247.1 237.1,248.4 C238.4,249.7 239.1,251.5 239.2,253.9 L235.1,254.1 C234.9,252.8 234.5,251.8 233.9,251.3 C233.3,250.8 232.5,250.5 231.4,250.5 C230.3,250.5 229.4,250.7 228.9,251.2 C228.3,251.7 228,252.2 228,252.9 C228,253.6 228.3,254.1 228.8,254.6 C229.3,255.1 230.6,255.6 232.5,256.1 C234.6,256.7 236,257.3 237,258 C237.9,258.7 238.6,259.5 239.1,260.5 C239.6,261.5 239.8,262.8 239.8,264.3 C239.8,266.4 239.1,268.3 237.8,269.7 C236.5,271.2 234.4,271.9 231.6,271.9 C226.7,272 223.9,269.2 223.3,263.5 z M251.8,265.9 L255.7,266.7 C255.2,268.5 254.4,269.8 253.3,270.7 C252.2,271.6 250.9,272 249.3,272 C247.1,272 245.4,271.3 244.3,269.8 C242.9,268.1 242.2,265.7 242.2,262.7 C242.2,259.7 242.9,257.3 244.3,255.5 C245.5,254 247,253.2 248.9,253.2 C251,253.2 252.6,254 253.8,255.5 C255.2,257.3 255.9,259.9 255.9,263.4 L255.9,263.9 L246.2,263.9 C246.2,265.3 246.5,266.4 247.2,267.2 C247.8,268 248.6,268.4 249.4,268.4 C250.5,268.5 251.3,267.6 251.8,265.9 z M252,261.1 C252,259.7 251.7,258.6 251.1,257.9 C250.5,257.2 249.9,256.8 249.1,256.8 C248.3,256.8 247.6,257.2 247,257.9 C246.4,258.6 246.1,259.7 246.2,261 C246.1,261.1 252,261.1 252,261.1 z M271.8,259 L268,259.8 C267.7,257.9 266.8,257 265.3,257 C264.3,257 263.6,257.4 263,258.2 C262.4,259 262.1,260.4 262.1,262.3 C262.1,264.4 262.4,265.9 263,266.8 C263.6,267.7 264.4,268.1 265.3,268.1 C266,268.1 266.6,267.9 267.1,267.4 C267.6,266.9 267.9,266 268.1,264.7 L271.9,265.5 C271.1,269.8 268.8,272 265.1,272 C262.7,272 260.9,271.1 259.8,269.3 C258.6,267.5 258.1,265.3 258.1,262.7 C258.1,259.6 258.8,257.3 260.1,255.7 C261.4,254.1 263.1,253.3 265.3,253.3 C267,253.3 268.4,253.8 269.5,254.7 C270.5,255.5 271.3,257 271.8,259 z M284.4,271.6 L284.4,268.9 C283.9,269.9 283.2,270.6 282.3,271.2 C281.4,271.8 280.5,272 279.6,272 C278.6,272 277.8,271.7 277,271.2 C276.2,270.7 275.7,270 275.3,269 C274.9,268 274.7,266.7 274.7,264.9 L274.7,253.6 L278.6,253.6 L278.6,261.8 C278.6,264.1 278.7,265.6 278.8,266.3 C278.9,266.9 279.2,267.4 279.6,267.8 C280,268.2 280.5,268.3 281.1,268.3 C281.8,268.3 282.4,268.1 282.9,267.6 C283.5,267.1 283.8,266.6 284,265.8 C284.2,265.1 284.3,263.5 284.3,261.1 L284.3,253.5 L288.2,253.5 L288.2,271.4 C288,271.6 284.4,271.6 284.4,271.6 z M295.7,271.6 L291.8,271.6 L291.8,253.7 L295.4,253.7 L295.4,256.2 C296,255 296.6,254.2 297.1,253.8 C297.6,253.4 298.2,253.2 298.8,253.2 C299.7,253.2 300.5,253.5 301.3,254.1 L300.1,258.2 C299.5,257.7 298.9,257.4 298.3,257.4 C297.8,257.4 297.3,257.6 296.9,258 C296.5,258.4 296.2,259.1 296,260.2 C295.8,261.2 295.7,263.2 295.7,266 C295.7,266 295.7,271.6 295.7,271.6 z M303,251.3 L303,246.9 L306.9,246.9 L306.9,251.3 L303,251.3 z M303,271.6 L303,253.7 L306.9,253.7 L306.9,271.6 L303,271.6 z M317.6,253.7 L317.6,257.5 L315,257.5 L315,264.7 C315,266.3 315,267.2 315.1,267.4 C315.3,267.9 315.6,268.1 316.1,268.1 C316.5,268.1 317,267.9 317.7,267.6 L318,271.3 C317.1,271.8 316.1,272 314.9,272 C313.9,272 313.1,271.8 312.5,271.3 C311.9,270.8 311.5,270.1 311.3,269.3 C311.1,268.6 311.1,267.3 311.1,265.3 L311.1,257.5 L309.3,257.5 L309.3,253.7 L311.1,253.7 L311.1,250.1 L315,247.3 L315,253.6 L317.6,253.7 L317.6,253.7 z M318.5,253.7 L322.6,253.7 L326.1,266.4 L329.5,253.7 L333.5,253.7 L328.3,270.9 L327.3,274.3 C326.9,275.6 326.4,276.5 326,277.1 C325.6,277.7 325,278.1 324.3,278.4 C323.6,278.7 322.8,278.9 321.8,278.9 C321,278.9 320.3,278.8 319.6,278.6 L319.3,274.9 C319.9,275 320.5,275.1 320.9,275.1 C321.6,275.1 322.2,274.9 322.7,274.4 C323.2,273.9 323.6,273 323.9,271.7 L318.5,253.7 z M334,271.6 L334,266.9 L337.9,266.9 L337.9,271.6 L334,271.6 z M349.8,271.6 L349.8,246.9 L356.4,246.9 C358.9,246.9 360.5,247 361.2,247.3 C362.4,247.7 363.4,248.5 364.2,249.7 C365,250.9 365.4,252.6 365.4,254.5 C365.4,256.3 365.1,257.8 364.4,259 C363.7,260.2 362.9,261.1 361.9,261.5 C360.9,261.9 359.1,262.2 356.7,262.2 L354,262.2 L354,271.5 L349.8,271.6 L349.8,271.6 z M353.9,251 L353.9,258 L356.2,258 C357.7,258 358.8,257.9 359.3,257.7 C359.8,257.5 360.3,257.1 360.6,256.5 C361,255.9 361.1,255.3 361.1,254.4 C361.1,253.6 360.9,252.9 360.6,252.3 C360.3,251.7 359.8,251.4 359.3,251.2 C358.8,251 357.6,250.9 355.9,250.9 L353.9,251 L353.9,251 z M377.2,265.9 L381.1,266.7 C380.6,268.5 379.8,269.8 378.7,270.7 C377.6,271.6 376.3,272 374.7,272 C372.5,272 370.8,271.3 369.7,269.8 C368.3,268.1 367.6,265.7 367.6,262.7 C367.6,259.7 368.3,257.3 369.7,255.5 C370.9,254 372.4,253.2 374.3,253.2 C376.4,253.2 378,254 379.2,255.5 C380.6,257.3 381.3,259.9 381.3,263.4 L381.3,263.9 L371.6,263.9 C371.6,265.3 371.9,266.4 372.6,267.2 C373.2,268 374,268.4 374.8,268.4 C375.9,268.5 376.8,267.6 377.2,265.9 z M377.4,261.1 C377.4,259.7 377.1,258.6 376.5,257.9 C375.9,257.2 375.3,256.8 374.5,256.8 C373.7,256.8 373,257.2 372.4,257.9 C371.8,258.6 371.5,259.7 371.6,261 C371.6,261.1 377.4,261.1 377.4,261.1 z M388.1,271.6 L384.2,271.6 L384.2,253.7 L387.8,253.7 L387.8,256.2 C388.4,255 389,254.2 389.5,253.8 C390,253.4 390.6,253.2 391.2,253.2 C392.1,253.2 392.9,253.5 393.7,254.1 L392.5,258.2 C391.9,257.7 391.3,257.4 390.7,257.4 C390.2,257.4 389.7,257.6 389.3,258 C388.9,258.4 388.6,259.1 388.4,260.2 C388.2,261.2 388.1,263.2 388.1,266 C388.1,266 388.1,271.6 388.1,271.6 z M393.7,253.7 L395.9,253.7 L395.9,252.4 C395.9,250.8 396.1,249.6 396.4,248.9 C396.7,248.2 397.2,247.6 397.9,247.2 C398.6,246.8 399.4,246.6 400.5,246.6 C401.6,246.6 402.7,246.8 403.7,247.2 L403.2,250.5 C402.6,250.3 402,250.2 401.4,250.2 C400.8,250.2 400.5,250.4 400.2,250.7 C400,251 399.8,251.6 399.8,252.6 L399.8,253.9 L402.7,253.9 L402.7,257.6 L399.8,257.6 L399.8,271.8 L395.9,271.8 L395.9,257.6 L393.7,257.6 L393.7,253.7 L393.7,253.7 z M403.9,262.4 C403.9,260.6 404.3,259 404.9,257.6 C405.6,256.2 406.5,255.1 407.6,254.4 C408.7,253.7 410,253.3 411.4,253.3 C413.8,253.3 415.6,254.2 417,256.1 C418.3,258 419,260.1 419,262.6 C419,264.4 418.6,266.1 417.9,267.6 C417.2,269.1 416.3,270.2 415.1,271 C414,271.7 412.7,272.1 411.4,272.1 C409.2,272.1 407.4,271.3 406,269.6 C404.6,267.8 403.9,265.5 403.9,262.4 z M407.9,262.6 C407.9,264.4 408.3,265.8 409,266.7 C409.7,267.6 410.6,268.1 411.6,268.1 C412.6,268.1 413.4,267.6 414.1,266.7 C414.8,265.8 415.1,264.4 415.1,262.6 C415.1,260.8 414.7,259.5 414,258.5 C413.3,257.6 412.4,257.1 411.4,257.1 C410.4,257.1 409.6,257.6 408.9,258.5 C408.3,259.5 407.9,260.8 407.9,262.6 z M425.9,271.6 L422,271.6 L422,253.7 L425.6,253.7 L425.6,256.2 C426.2,255 426.8,254.2 427.3,253.8 C427.8,253.4 428.4,253.2 429,253.2 C429.9,253.2 430.7,253.5 431.5,254.1 L430.3,258.2 C429.7,257.7 429.1,257.4 428.5,257.4 C428,257.4 427.5,257.6 427.1,258 C426.7,258.4 426.4,259.1 426.2,260.2 C426,261.2 425.9,263.2 425.9,266 L425.9,271.6 L425.9,271.6 z M432.8,253.7 L436.4,253.7 L436.4,256.1 C437,255.1 437.7,254.4 438.5,254 C439.3,253.5 440.1,253.3 441,253.3 C441.9,253.3 442.8,253.5 443.5,254 C444.2,254.5 444.8,255.2 445.2,256.1 C445.9,255.1 446.5,254.4 447.3,254 C448,253.5 448.8,253.3 449.7,253.3 C450.7,253.3 451.6,253.5 452.3,254 C453,254.5 453.6,255.2 453.9,256.1 C454.3,257 454.5,258.4 454.5,260.2 L454.5,271.7 L450.6,271.7 L450.6,261.5 C450.6,259.7 450.4,258.5 450.1,257.9 C449.8,257.3 449.3,257 448.5,257 C447.6,257 446.9,257.4 446.4,258.2 C445.9,259 445.6,260.6 445.6,263.1 L445.6,271.7 L441.7,271.7 L441.7,261.9 C441.7,260 441.6,258.7 441.4,258.1 C441.1,257.4 440.5,257 439.7,257 C439.1,257 438.6,257.2 438.1,257.6 C437.6,258 437.3,258.5 437.1,259.3 C436.9,260 436.8,261.3 436.8,263 L436.8,271.7 L432.9,271.7 L432.8,253.7 L432.8,253.7 z M461.2,259.1 L457.7,258.3 C458.1,256.5 458.8,255.2 459.8,254.4 C460.8,253.6 462.2,253.2 464,253.2 C465.6,253.2 466.9,253.4 467.8,253.9 C468.7,254.4 469.3,255 469.7,255.8 C470.1,256.6 470.3,258 470.3,260.1 L470.3,265.6 C470.3,267.2 470.4,268.3 470.5,269.1 C470.6,269.9 470.9,270.7 471.2,271.5 L467.4,271.5 L466.9,269.5 C466.2,270.3 465.5,270.9 464.8,271.3 C464,271.7 463.2,271.9 462.4,271.9 C461,271.9 459.8,271.4 458.9,270.5 C458,269.5 457.5,268.3 457.5,266.7 C457.5,265.7 457.7,264.8 458.1,264 C458.5,263.2 459,262.6 459.7,262.2 C460.4,261.7 461.5,261.3 462.9,261 C464.7,260.6 466,260.2 466.7,259.8 C466.7,258.8 466.6,258.2 466.5,257.8 C466.4,257.5 466.1,257.2 465.7,257 C465.3,256.8 464.8,256.7 464.1,256.7 C463.4,256.7 462.9,256.9 462.5,257.2 C461.8,257.7 461.5,258.3 461.2,259.1 z M466.4,263 C465.9,263.2 465.1,263.4 464.1,263.7 C462.9,264 462.1,264.4 461.7,264.7 C461.3,265.1 461.1,265.6 461.1,266.2 C461.1,266.9 461.3,267.5 461.7,267.9 C462.1,268.4 462.6,268.6 463.2,268.6 C463.7,268.6 464.3,268.4 464.8,268 C465.3,267.6 465.7,267.2 465.9,266.7 C466.1,266.2 466.2,265.2 466.2,263.9 L466.2,263 z M487.4,271.6 L483.5,271.6 L483.5,262.5 C483.5,260.7 483.4,259.4 483.3,258.8 C483.2,258.2 482.9,257.7 482.5,257.4 C482.1,257.1 481.6,256.9 481.1,256.9 C480.5,256.9 479.9,257.1 479.3,257.5 C478.8,257.9 478.4,258.5 478.2,259.2 C478,259.9 477.9,261.3 477.9,263.4 L477.9,271.5 L474,271.5 L474,253.6 L477.6,253.6 L477.6,256.2 C478.2,255.2 479,254.4 479.8,253.9 C480.6,253.4 481.5,253.1 482.5,253.1 C483.6,253.1 484.6,253.4 485.4,254 C486.2,254.6 486.7,255.3 487,256.3 C487.3,257.2 487.4,258.6 487.4,260.3 L487.4,271.6 L487.4,271.6 z M504.2,259 L500.4,259.8 C500.1,257.9 499.2,257 497.7,257 C496.7,257 496,257.4 495.4,258.2 C494.8,259 494.5,260.4 494.5,262.3 C494.5,264.4 494.8,265.9 495.4,266.8 C496,267.7 496.8,268.1 497.7,268.1 C498.4,268.1 499,267.9 499.5,267.4 C500,266.9 500.3,266 500.5,264.7 L504.3,265.5 C503.5,269.8 501.2,272 497.5,272 C495.1,272 493.3,271.1 492.2,269.3 C491,267.5 490.5,265.3 490.5,262.7 C490.5,259.6 491.2,257.3 492.5,255.7 C493.8,254.1 495.5,253.3 497.7,253.3 C499.4,253.3 500.8,253.8 501.9,254.7 C502.9,255.5 503.7,257 504.2,259 z M515.7,265.9 L519.6,266.7 C519.1,268.5 518.3,269.8 517.2,270.7 C516.1,271.6 514.8,272 513.2,272 C511,272 509.3,271.3 508.2,269.8 C506.8,268.1 506.1,265.7 506.1,262.7 C506.1,259.7 506.8,257.3 508.2,255.5 C509.4,254 510.9,253.2 512.8,253.2 C514.9,253.2 516.5,254 517.7,255.5 C519.1,257.3 519.8,259.9 519.8,263.4 L519.8,263.9 L510,263.9 C510,265.3 510.3,266.4 511,267.2 C511.6,268 512.4,268.4 513.2,268.4 C514.4,268.5 515.2,267.6 515.7,265.9 z M515.9,261.1 C515.9,259.7 515.6,258.6 515,257.9 C514.4,257.2 513.8,256.8 513,256.8 C512.2,256.8 511.5,257.2 510.9,257.9 C510.3,258.6 510,259.7 510.1,261 C510,261.1 515.9,261.1 515.9,261.1 z M522.9,271.6 L522.9,266.9 L526.8,266.9 L526.8,271.6 L522.9,271.6 z M538.6,271.6 L538.6,246.9 L545.2,246.9 C547.7,246.9 549.3,247 550,247.3 C551.2,247.7 552.2,248.5 553,249.7 C553.8,250.9 554.2,252.6 554.2,254.5 C554.2,256.3 553.9,257.8 553.2,259 C552.5,260.2 551.7,261.1 550.7,261.5 C549.7,261.9 547.9,262.2 545.5,262.2 L542.8,262.2 L542.8,271.5 L538.6,271.6 L538.6,271.6 z M542.7,251 L542.7,258 L545,258 C546.5,258 547.6,257.9 548.1,257.7 C548.6,257.5 549.1,257.1 549.4,256.5 C549.8,255.9 549.9,255.3 549.9,254.4 C549.9,253.6 549.7,252.9 549.4,252.3 C549.1,251.7 548.6,251.4 548.1,251.2 C547.6,251 546.4,250.9 544.7,250.9 L542.7,251 L542.7,251 z M561.2,271.6 L557.3,271.6 L557.3,253.7 L560.9,253.7 L560.9,256.2 C561.5,255 562.1,254.2 562.6,253.8 C563.1,253.4 563.7,253.2 564.3,253.2 C565.2,253.2 566,253.5 566.8,254.1 L565.6,258.2 C565,257.7 564.4,257.4 563.8,257.4 C563.3,257.4 562.8,257.6 562.4,258 C562,258.4 561.7,259.1 561.5,260.2 C561.3,261.2 561.2,263.2 561.2,266 L561.2,271.6 L561.2,271.6 z M567.6,262.4 C567.6,260.6 568,259 568.6,257.6 C569.3,256.2 570.2,255.1 571.3,254.4 C572.4,253.7 573.7,253.3 575.1,253.3 C577.5,253.3 579.3,254.2 580.7,256.1 C582,258 582.7,260.1 582.7,262.6 C582.7,264.4 582.3,266.1 581.6,267.6 C580.9,269.1 580,270.2 578.8,271 C577.7,271.7 576.4,272.1 575.1,272.1 C572.9,272.1 571.1,271.3 569.7,269.6 C568.3,267.8 567.6,265.5 567.6,262.4 z M571.6,262.6 C571.6,264.4 572,265.8 572.7,266.7 C573.4,267.6 574.3,268.1 575.3,268.1 C576.3,268.1 577.1,267.6 577.8,266.7 C578.5,265.8 578.8,264.4 578.8,262.6 C578.8,260.8 578.4,259.5 577.7,258.5 C577,257.6 576.1,257.1 575.1,257.1 C574.1,257.1 573.3,257.6 572.6,258.5 C571.9,259.5 571.6,260.8 571.6,262.6 z M584.9,262.4 C584.9,260.6 585.3,259 585.9,257.6 C586.6,256.2 587.5,255.1 588.6,254.4 C589.7,253.7 591,253.3 592.4,253.3 C594.8,253.3 596.6,254.2 598,256.1 C599.3,258 600,260.1 600,262.6 C600,264.4 599.6,266.1 598.9,267.6 C598.2,269.1 597.3,270.2 596.1,271 C595,271.7 593.7,272.1 592.4,272.1 C590.2,272.1 588.4,271.3 587,269.6 C585.6,267.8 584.9,265.5 584.9,262.4 z M588.9,262.6 C588.9,264.4 589.3,265.8 590,266.7 C590.7,267.6 591.6,268.1 592.6,268.1 C593.6,268.1 594.4,267.6 595.1,266.7 C595.8,265.8 596.1,264.4 596.1,262.6 C596.1,260.8 595.7,259.5 595,258.5 C594.3,257.6 593.4,257.1 592.4,257.1 C591.4,257.1 590.6,257.6 589.9,258.5 C589.2,259.5 588.9,260.8 588.9,262.6 z M601.4,253.7 L603.6,253.7 L603.6,252.4 C603.6,250.8 603.8,249.6 604.1,248.9 C604.4,248.2 604.9,247.6 605.6,247.2 C606.3,246.8 607.1,246.6 608.2,246.6 C609.3,246.6 610.4,246.8 611.4,247.2 L610.9,250.5 C610.3,250.3 609.7,250.2 609.1,250.2 C608.6,250.2 608.2,250.4 607.9,250.7 C607.7,251 607.5,251.6 607.5,252.6 L607.5,253.9 L610.4,253.9 L610.4,257.6 L607.5,257.6 L607.5,271.8 L603.6,271.8 L603.6,257.6 L601.4,257.6 L601.4,253.7 L601.4,253.7 z M612.6,271.6 L612.6,266.9 L616.5,266.9 L616.5,271.6 L612.6,271.6 z" fill="#000000"/>
  </g>
</svg>
